# xmcd
#
# Track frame offsets:
# 150
# 18080
# 36800
# 56672
# 75222
# 95332
# 110030
# 125300
# 141002
# 160892
# 175155
# 193545
# 214522
#
# Disc length: 3099 seconds
#
#
# Revision: 0
# Processed by: cddbd v1.4PL0 Copyright (c) Steve Scherf et al.
# Submitted via: FreeRIP 2.00 
#
DISCID=9e0c190d
DTITLE=Mary Black - The Holy Ground
DYEAR=1993
DGENRE=Country
TTITLE0=Summer Sent You
TTITLE1=Flesh and Blood
TTITLE2=The Loving Time
TTITLE3=Golden Thread
TTITLE4=The Holy Ground
TTITLE5=Treasure Island
TTITLE6=The Holy Ground
TTITLE7=One Way Donkey Ride
TTITLE8=Dockland
TTITLE9=Lay Down Your Burden
TTITLE10=Paper Friends
TTITLE11=Poison Words
TTITLE12=Don't Explain
EXTD=
EXTT0=
EXTT1=
EXTT2=
EXTT3=
EXTT4=
EXTT5=
EXTT6=
EXTT7=
EXTT8=
EXTT9=
EXTT10=
EXTT11=
EXTT12=
PLAYORDER=
